<?xml version="1.0" encoding="utf-8"?>

<!-- License Agreement at http://iconmonstr.com/license/ -->

<!DOCTYPE svg PUBLIC "-//W3C//DTD SVG 1.1//EN" "http://www.w3.org/Graphics/SVG/1.1/DTD/svg11.dtd">
<svg version="1.1" xmlns="http://www.w3.org/2000/svg" xmlns:xlink="http://www.w3.org/1999/xlink" x="0px" y="0px"
	 width="512px" height="512px" viewBox="0 0 512 512" enable-background="new 0 0 512 512" xml:space="preserve">
<path id="font-color-icon" d="M355.714,247.083c-43.184,64.416-70.936,104.693-70.936,143.869c0,39.178,31.758,70.937,70.936,70.937
	s70.936-31.759,70.936-70.937C426.649,351.776,398.896,311.499,355.714,247.083z M360.599,339.347
	c-10.199,25.562-38.82,19.101-23.457-14.253c6.473-14.053,10.963-20.03,18.322-32.185
	C361.554,302.431,367.397,322.303,360.599,339.347z M211.886,391.403V106.952h-55.938c-19.66,0-35.598,15.938-35.598,35.597h-35V50
	h334.424h0.023l-0.023,92.549h-35c0-19.659-15.938-35.597-35.596-35.597h-55.645v180.124
	c-24.146,38.802-38.756,70.274-38.756,103.876c0,27.682,11.205,52.794,29.312,71.048H164.03v-35h12.258
	C195.948,427,211.886,411.062,211.886,391.403z"/>
</svg>
